HIERARCHY
ROOT Hips
{
	OFFSET 0.000000 0.000000 0.000000 
	CHANNELS 6 Xposition Yposition Zposition Zrotation Yrotation Xrotation
	JOINT LeftUpLeg
	{
		OFFSET 1.363060 -1.794630 0.839290 
		CHANNELS 3 Zrotation Yrotation Xrotation
		JOINT LeftLeg
		{
			OFFSET 2.448110 -6.726130 0.000000 
			CHANNELS 3 Zrotation Yrotation Xrotation
			JOINT LeftFoot
			{
				OFFSET 2.562200 -7.039590 0.000000 
				CHANNELS 3 Zrotation Yrotation Xrotation
				JOINT LeftToeBase
				{
					OFFSET 0.157640 -0.433110 2.322550 
					CHANNELS 3 Zrotation Yrotation Xrotation
					End Site
					{
						OFFSET 0.000000 0.000000 0.000000 
					}
				}
			}
		}
	}
	JOINT RightUpLeg
	{
		OFFSET -1.305520 -1.794630 0.839290 
		CHANNELS 3 Zrotation Yrotation Xrotation
		JOINT RightLeg
		{
			OFFSET -2.542530 -6.985550 0.000000 
			CHANNELS 3 Zrotation Yrotation Xrotation
			JOINT RightFoot
			{
				OFFSET -2.568260 -7.056230 0.000000 
				CHANNELS 3 Zrotation Yrotation Xrotation
				JOINT RightToeBase
				{
					OFFSET -0.164730 -0.452590 2.363150 
					CHANNELS 3 Zrotation Yrotation Xrotation
					End Site
					{
						OFFSET 0.000000 0.000000 0.000000 
					}
				}
			}
		}
	}
	JOINT Spine
	{
		OFFSET 0.028270 2.035590 -0.193380 
		CHANNELS 3 Zrotation Yrotation Xrotation
		JOINT Spine1
		{
			OFFSET 0.056720 2.048850 -0.042750 
			CHANNELS 3 Zrotation Yrotation Xrotation
			JOINT Neck1
			{
				OFFSET -0.054170 1.746240 0.172020 
				CHANNELS 3 Zrotation Yrotation Xrotation
				JOINT Head
				{
					OFFSET 0.104070 1.761360 -0.123970 
					CHANNELS 3 Zrotation Yrotation Xrotation
					End Site
					{
						OFFSET 0.000000 0.000000 0.000000 
					}
				}
			}
			JOINT LeftArm
			{
				OFFSET 3.362410 1.200890 -0.311210 
				CHANNELS 3 Zrotation Yrotation Xrotation
				JOINT LeftForeArm
				{
					OFFSET 4.983000 -0.000000 -0.000000 
					CHANNELS 3 Zrotation Yrotation Xrotation
					JOINT LeftHand
					{
						OFFSET 3.483560 -0.000000 -0.000000 
						CHANNELS 3 Zrotation Yrotation Xrotation
						JOINT LeftHandIndex1
						{
							OFFSET 0.715260 -0.000000 -0.000000 
							CHANNELS 3 Zrotation Yrotation Xrotation
							End Site
							{
								OFFSET 0.000000 0.000000 0.000000 
							}
						}
					}
				}
			}
			JOINT RightArm
			{
				OFFSET -3.136600 1.374050 -0.404650 
				CHANNELS 3 Zrotation Yrotation Xrotation
				JOINT RightForeArm
				{
					OFFSET -5.241900 -0.000000 -0.000000 
					CHANNELS 3 Zrotation Yrotation Xrotation
					JOINT RightHand
					{
						OFFSET -3.444170 -0.000000 -0.000000 
						CHANNELS 3 Zrotation Yrotation Xrotation
						JOINT RightHandIndex1
						{
							OFFSET -0.622530 -0.000000 -0.000000 
							CHANNELS 3 Zrotation Yrotation Xrotation
							End Site
							{
								OFFSET 0.000000 0.000000 0.000000 
							}
						}
					}
				}
			}
		}
	}
}
MOTION
Frames: 18
Frame Time: 0.041667
53.418900 17.074985 -30.296704 -7.560078 -55.761374 4.156574 -14.740932 7.242025 -4.985620 0.170938 8.185446 21.959816 -0.553872 4.722610 -5.422345 0.010900 -0.674700 -1.854000 25.966980 0.132993 -6.876857 -0.903971 -11.011211 29.809752 2.060981 -10.476936 -13.202577 -0.039400 -1.281000 3.522300 1.093500 -0.581979 -1.088507 -2.116497 -0.182250 4.055904 6.999322 -2.175869 9.863914 0.871000 -0.727000 2.336600 -73.613655 3.687742 35.223080 14.388988 -29.217256 -5.869167 -0.997402 -2.291442 -26.560031 -7.125000 0.000000 0.000000 75.647530 -4.081166 27.126975 -11.574625 25.830851 -4.252763 1.430226 0.790321 -0.939953 7.125000 0.000000 0.000000 
53.420094 17.075093 -30.294425 -7.560974 -55.733551 4.157227 -14.740465 7.262939 -4.997217 0.169948 8.185039 21.958024 -0.538699 4.667713 -5.398094 0.010900 -0.675000 -1.855100 25.968484 0.154393 -6.867986 -0.903408 -11.010055 29.805979 2.085113 -10.552608 -13.221610 -0.037000 -1.240800 3.411700 1.096807 -0.598347 -1.085988 -2.113530 -0.190922 4.096976 6.997235 -2.196661 9.919013 0.873800 -0.734500 2.388700 -73.700807 3.500927 35.325205 14.554789 -29.362505 -5.943293 -0.993384 -2.281560 -26.630956 -7.125000 0.000000 0.000000 75.621666 -4.043226 27.158367 -11.626974 25.890966 -4.277089 1.415339 0.797137 -0.933828 7.125000 0.000000 0.000000 
53.420961 17.074985 -30.291822 -7.467342 -55.679166 4.071009 -14.792472 7.271284 -4.995548 0.166413 8.184441 21.950345 -0.524759 4.616279 -5.359884 0.010600 -0.665300 -1.828300 25.906802 0.131506 -6.858875 -0.905220 -11.007460 29.810251 2.070424 -10.514337 -13.257725 -0.039700 -1.286000 3.536200 1.096349 -0.616769 -1.089743 -2.110066 -0.201387 4.082106 6.994288 -2.230517 9.967767 0.872500 -0.749800 2.412700 -73.744478 3.385955 35.497090 14.708470 -29.505054 -6.013062 -0.989734 -2.284569 -26.753757 -7.125000 0.000000 0.000000 75.599500 -4.064534 27.213167 -11.675678 25.950466 -4.300018 1.407621 0.815300 -0.983343 7.125000 0.000000 0.000000 
53.422263 17.074876 -30.288567 -7.476562 -55.690953 4.066117 -14.800655 7.283733 -4.977568 0.165866 8.182317 21.944934 -0.522639 4.609280 -5.365579 0.010200 -0.651100 -1.789300 25.899687 0.132345 -6.839907 -0.905516 -11.005739 29.809046 2.085547 -10.566925 -13.294810 -0.034100 -1.192200 3.277700 1.094316 -0.598621 -1.086060 -2.140437 -0.190841 4.099345 6.988329 -2.204940 9.976598 0.868400 -0.736800 2.408600 -73.819795 3.194157 35.618221 14.791898 -29.562023 -6.042571 -0.989019 -2.281088 -26.833256 -7.125000 0.000000 0.000000 75.636523 -4.034205 27.111868 -11.689547 25.965002 -4.308873 1.413002 0.804773 -0.893744 7.125000 0.000000 0.000000 
53.423240 17.074876 -30.285638 -7.446868 -55.679126 4.033939 -14.824667 7.294703 -4.966257 0.163451 8.178951 21.933429 -0.517186 4.589161 -5.353701 0.010000 -0.646200 -1.775800 25.876781 0.143369 -6.821372 -0.905916 -11.004367 29.811322 2.092855 -10.601762 -13.363287 -0.030800 -1.132600 3.113800 1.096451 -0.608463 -1.084967 -2.136461 -0.196355 4.112488 6.976586 -2.192256 10.001716 0.862100 -0.729900 2.420400 -73.912596 3.027626 35.720037 14.890695 -29.639642 -6.082390 -0.987216 -2.279997 -26.914843 -7.125000 0.000000 0.000000 75.609299 -3.999312 27.142755 -11.708400 25.985524 -4.317245 1.415415 0.804311 -0.907518 7.125000 0.000000 0.000000 
53.424216 17.074876 -30.282600 -7.418172 -55.672353 4.001112 -14.849269 7.305107 -4.954355 0.161580 8.176547 21.925009 -0.512679 4.573138 -5.348469 0.009900 -0.642800 -1.766500 25.855535 0.165644 -6.795843 -0.905164 -11.001536 29.809467 2.100530 -10.640610 -13.445189 -0.027500 -1.070500 2.942800 1.098580 -0.622760 -1.086856 -2.136865 -0.204060 4.107617 6.960476 -2.170781 10.026728 0.853000 -0.718500 2.433900 -74.012147 2.877907 35.801924 14.967546 -29.693936 -6.111162 -0.985749 -2.279486 -26.983280 -7.125000 0.000000 0.000000 75.578236 -3.970935 27.199514 -11.720119 25.997703 -4.321066 1.421036 0.800774 -0.935767 7.125000 0.000000 0.000000 
53.425084 17.074876 -30.279563 -7.396205 -55.674153 3.972882 -14.869395 7.320605 -4.939510 0.159803 8.173418 21.914991 -0.508075 4.556772 -5.346265 0.009700 -0.634900 -1.744600 25.840258 0.196420 -6.765985 -0.904505 -10.999382 29.809053 2.106622 -10.674978 -13.526084 -0.024800 -1.017100 2.795900 1.103687 -0.643648 -1.087294 -2.118732 -0.216040 4.113343 6.940347 -2.138965 10.051587 0.842200 -0.702100 2.449200 -74.141537 2.718901 35.838639 15.013620 -29.716030 -6.124036 -0.984670 -2.275420 -27.022740 -7.125000 0.000000 0.000000 75.522780 -3.922603 27.278923 -11.724261 25.999317 -4.320758 1.427662 0.796591 -0.973492 7.125000 0.000000 0.000000 
53.425735 17.074551 -30.276634 -7.379117 -55.679452 3.944279 -14.885073 7.344702 -4.924433 0.158818 8.170601 21.907495 -0.502676 4.537758 -5.345106 0.009500 -0.629900 -1.730900 25.828947 0.228952 -6.732090 -0.904069 -10.997434 29.809374 2.109233 -10.696691 -13.594812 -0.023400 -0.986700 2.712300 1.108725 -0.669568 -1.090857 -2.106285 -0.230488 4.099457 6.917931 -2.104350 10.079771 0.829500 -0.684100 2.470300 -74.276797 2.576809 35.844457 15.032705 -29.709721 -6.123176 -0.983800 -2.269682 -27.037573 -7.125000 0.000000 0.000000 75.471588 -3.883680 27.363221 -11.724144 25.995328 -4.317930 1.433210 0.792394 -1.005402 7.125000 0.000000 0.000000 
53.426277 17.074225 -30.273704 -7.369884 -55.689383 3.920661 -14.896079 7.373608 -4.910545 0.158484 8.168405 21.902958 -0.495927 4.513747 -5.346474 0.009100 -0.616200 -1.693400 25.821391 0.260917 -6.698273 -0.903779 -10.995740 29.810010 2.110469 -10.710613 -13.644524 -0.022700 -0.973000 2.674400 1.112952 -0.691892 -1.095467 -2.101583 -0.243051 4.080377 6.896916 -2.072280 10.112147 0.816600 -0.667000 2.497200 -74.414590 2.436621 35.829853 15.021927 -29.671337 -6.106548 -0.984693 -2.263137 -27.023044 -7.125000 0.000000 0.000000 75.433323 -3.847548 27.428356 -11.718226 25.984175 -4.312737 1.436826 0.789885 -1.029235 7.125000 0.000000 0.000000 
53.426711 17.073683 -30.270992 -7.364107 -55.701640 3.900702 -14.902619 7.411506 -4.900851 0.158701 8.166736 21.900148 -0.487045 4.482291 -5.345925 0.008600 -0.598500 -1.644600 25.816114 0.283726 -6.668745 -0.904104 -10.994880 29.812202 2.107603 -10.706543 -13.665313 -0.023300 -0.984800 2.707100 1.119530 -0.717885 -1.098111 -2.078910 -0.258269 4.074160 6.876666 -2.036011 10.144537 0.804600 -0.647900 2.523500 -74.574060 2.288708 35.781390 14.983814 -29.605361 -6.075853 -0.986385 -2.252314 -26.977369 -7.125000 0.000000 0.000000 75.390501 -3.801752 27.468197 -11.706852 25.965219 -4.305653 1.437758 0.789515 -1.026460 7.125000 0.000000 0.000000 
53.427037 17.073140 -30.268388 -7.358805 -55.712892 3.881371 -14.909234 7.447158 -4.891581 0.158871 8.165094 21.897504 -0.479792 4.456570 -5.344258 0.008300 -0.588600 -1.617500 25.809455 0.300713 -6.643652 -0.904999 -10.994437 29.815570 2.106819 -10.707092 -13.679747 -0.023500 -0.989600 2.720200 1.123717 -0.736190 -1.101981 -2.073441 -0.268961 4.058677 6.857560 -2.006997 10.176433 0.789600 -0.632000 2.549100 -74.719035 2.148495 35.741055 14.926717 -29.519780 -6.035140 -0.989278 -2.242739 -26.916772 -7.125000 0.000000 0.000000 75.376057 -3.767822 27.475408 -11.689533 25.939654 -4.296585 1.435795 0.792019 -1.017282 7.125000 0.000000 0.000000 
53.427362 17.072815 -30.265893 -7.347070 -55.722540 3.859773 -14.919697 7.482822 -4.885359 0.158781 8.163143 21.893184 -0.473807 4.434934 -5.339070 0.008300 -0.588900 -1.618300 25.798835 0.313737 -6.623632 -0.906273 -10.994581 29.820498 2.107180 -10.710476 -13.692461 -0.023500 -0.988800 2.718000 1.127995 -0.754723 -1.105616 -2.064143 -0.279954 4.044200 6.840012 -1.977600 10.204289 0.775700 -0.616300 2.569600 -74.867039 2.013900 35.694592 14.853183 -29.418330 -5.986218 -0.992997 -2.233645 -26.847164 -7.125000 0.000000 0.000000 75.366131 -3.739457 27.474037 -11.669091 25.910903 -4.286228 1.433177 0.796510 -1.009101 7.125000 0.000000 0.000000 
53.427796 17.072489 -30.263398 -7.333961 -55.730834 3.841763 -14.932858 7.510135 -4.880694 0.158066 8.160783 21.886488 -0.472148 4.428197 -5.331574 0.008600 -0.600300 -1.649600 25.785394 0.322723 -6.610437 -0.907734 -10.995053 29.825847 2.108512 -10.716391 -13.701901 -0.023200 -0.984200 2.705400 1.133200 -0.776285 -1.108244 -2.049877 -0.292616 4.037874 6.821319 -1.945523 10.229623 0.760800 -0.599300 2.588000 -75.026860 1.873622 35.631771 14.760838 -29.297323 -5.928157 -0.998723 -2.226737 -26.764806 -7.125000 0.000000 0.000000 75.353396 -3.706955 27.465970 -11.646710 25.879687 -4.275454 1.431176 0.801306 -0.999101 7.125000 0.000000 0.000000 
53.428339 17.072272 -30.260903 -7.319439 -55.736905 3.824003 -14.948286 7.532084 -4.876979 0.157136 8.157859 21.878119 -0.472092 4.427691 -5.326056 0.009000 -0.614100 -1.687500 25.769454 0.330050 -6.601229 -0.909128 -10.995486 29.830650 2.111147 -10.725250 -13.708484 -0.022900 -0.976700 2.684600 1.136427 -0.797626 -1.113730 -2.051918 -0.304659 4.013801 6.803425 -1.914278 10.253525 0.746600 -0.582700 2.607000 -75.173495 1.752211 35.573520 14.657087 -29.164240 -5.864655 -1.006142 -2.223423 -26.681287 -7.125000 0.000000 0.000000 75.361418 -3.694831 27.444852 -11.624917 25.849979 -4.264922 1.429757 0.804031 -0.977256 7.125000 0.000000 0.000000 
53.428989 17.072055 -30.258299 -7.305525 -55.744461 3.808227 -14.964647 7.549675 -4.871426 0.155899 8.154975 21.869241 -0.472919 4.430435 -5.321989 0.009400 -0.625100 -1.717700 25.752683 0.334800 -6.593333 -0.910460 -10.995665 29.834780 2.113258 -10.731889 -13.711549 -0.022500 -0.969300 2.664400 1.140640 -0.821042 -1.117430 -2.047688 -0.317718 3.999572 6.786047 -1.883372 10.272819 0.733400 -0.566700 2.621100 -75.328432 1.623733 35.501601 14.534765 -29.011558 -5.792060 -1.014390 -2.219467 -26.587481 -7.125000 0.000000 0.000000 75.362780 -3.674075 27.424066 -11.599790 25.816185 -4.252938 1.429702 0.805566 -0.954367 7.125000 0.000000 0.000000 
53.429857 17.071730 -30.255804 -7.293413 -55.753580 3.794578 -14.980109 7.566752 -4.863834 0.154778 8.152095 21.860372 -0.473821 4.433265 -5.320016 0.009600 -0.634300 -1.743100 25.736178 0.336634 -6.585159 -0.911538 -10.995522 29.837751 2.113406 -10.731689 -13.710590 -0.022300 -0.964500 2.651300 1.145263 -0.842854 -1.118457 -2.040085 -0.329887 3.999898 6.769238 -1.856362 10.286311 0.720300 -0.552800 2.629300 -75.479998 1.489456 35.429522 14.400132 -28.846700 -5.713459 -1.021434 -2.212663 -26.489983 -7.125000 0.000000 0.000000 75.360973 -3.640965 27.393652 -11.569137 25.775985 -4.238709 1.430503 0.804976 -0.921643 7.125000 0.000000 0.000000 
53.430617 17.071513 -30.253309 -7.282472 -55.763839 3.781277 -14.995588 7.579805 -4.854177 0.153581 8.149280 21.851938 -0.473416 4.432018 -5.322582 0.009500 -0.628800 -1.727800 25.719606 0.338327 -6.577499 -0.912420 -10.995074 29.839770 2.113262 -10.729911 -13.705939 -0.022100 -0.959200 2.636600 1.147977 -0.860226 -1.120985 -2.045856 -0.339264 3.987676 6.754764 -1.836635 10.294481 0.708200 -0.542800 2.633100 -75.614646 1.375047 35.366706 14.258287 -28.674830 -5.631974 -1.027611 -2.205714 -26.385303 -7.125000 0.000000 0.000000 75.376408 -3.619196 27.351159 -11.534399 25.731683 -4.222693 1.430861 0.802760 -0.877343 7.125000 0.000000 0.000000 
53.431376 17.071404 -30.251030 -7.270875 -55.778226 3.771720 -15.011352 7.589214 -4.845707 0.152074 8.146511 21.843066 -0.472489 4.429428 -5.330195 0.009100 -0.614300 -1.688100 25.703236 0.344586 -6.572253 -0.912963 -10.994871 29.841317 2.111233 -10.722403 -13.700426 -0.022000 -0.957200 2.631100 1.152003 -0.877341 -1.120867 -2.037891 -0.348725 3.992244 6.741952 -1.817510 10.299164 0.698100 -0.533300 2.632300 -75.752120 1.263343 35.302984 14.114777 -28.503611 -5.550837 -1.032669 -2.198896 -26.279267 -7.125000 0.000000 0.000000 75.378680 -3.583336 27.316019 -11.495665 25.682396 -4.204749 1.429905 0.801927 -0.836808 7.125000 0.000000 0.000000 
